<?xml version="1.0" encoding="UTF-8"?>
<svg version="1.1" xmlns="http://www.w3.org/2000/svg" width="537" height="537">
<path d="M0 0 C177.21 0 354.42 0 537 0 C537 177.21 537 354.42 537 537 C359.79 537 182.58 537 0 537 C0 359.79 0 182.58 0 0 Z " fill="#090909" transform="translate(0,0)"/>
<path d="M0 0 C11.86927244 9.93366801 18.27738467 23.3754142 25.18359375 36.90234375 C28.11588649 42.63911841 31.18033943 48.29483984 34.2890625 53.9375 C38.83707931 62.21369082 43.26088496 70.54631824 47.578125 78.9453125 C50.44304427 84.49085799 53.40110416 89.97931251 56.40588379 95.44993591 C62.58512938 106.70503414 68.52892 118.06134543 74.33682251 129.51202393 C76.83904924 134.44496567 79.35184976 139.37252129 81.86328125 144.30078125 C82.34685593 145.25035706 82.8304306 146.19993286 83.32865906 147.17828369 C87.14699822 154.67195182 91.0147174 162.13776503 94.92578125 169.58349609 C97.84197328 175.14301392 100.72159419 180.72024969 103.58203125 186.30859375 C114.30724379 207.28517219 114.30724379 207.28517219 125.49804688 228.01586914 C127.7376166 232.05402029 129.93464728 236.1104366 132.05078125 240.21484375 C132.45643311 240.99980225 132.86208496 241.78476074 133.2800293 242.59350586 C136.50714513 250.09012796 136.11379348 257.50266577 133.2265625 265 C129.06055206 274.10736172 123.85031775 279.65752579 114.671875 283.8671875 C105.92239708 286.63549806 96.90624164 285.92675941 88.53515625 282.30078125 C82.75078558 278.78991975 79.16813966 274.84432019 75.7265625 269.0625 C75.30584473 268.37325439 74.88512695 267.68400879 74.45166016 266.97387695 C70.32141794 260.13882795 66.42622698 253.16761544 62.52685547 246.19921875 C58.25387056 238.58081439 53.82982875 231.06176767 49.3515625 223.5625 C43.55201956 213.8398183 37.93365819 204.03473981 32.43554688 194.13891602 C27.36515167 185.0276 22.12347264 176.02310418 16.8515625 167.02734375 C13.15692907 160.72179525 9.50060223 154.39451776 5.8515625 148.0625 C5.23265137 146.98887207 4.61374023 145.91524414 3.97607422 144.80908203 C1.4261093 140.38451255 -1.12261219 135.95922789 -3.67089844 131.53369141 C-4.3209082 130.40495605 -4.97091797 129.2762207 -5.640625 128.11328125 C-6.28515625 126.99381104 -6.9296875 125.87434082 -7.59375 124.72094727 C-8.86718431 122.51289852 -10.14317394 120.30632126 -11.421875 118.10131836 C-14.19138062 113.32546141 -16.94101497 108.544974 -19.59375 103.703125 C-20.03098389 102.9201001 -20.46821777 102.1370752 -20.91870117 101.33032227 C-21.70055917 99.92819336 -22.46810037 98.51791101 -23.21606445 97.09741211 C-26.02007881 92.12816581 -29.51573515 89.30346188 -34.7109375 86.9375 C-37.76983871 86.13147843 -37.76983871 86.13147843 -40.7109375 86.25 C-41.6596875 86.22550781 -42.6084375 86.20101562 -43.5859375 86.17578125 C-50.92811349 87.96543665 -54.82237404 92.67947451 -58.68359375 98.953125 C-60.07751881 101.3479122 -61.42664284 103.76598765 -62.7734375 106.1875 C-63.51454568 107.4897907 -64.25733236 108.79112748 -65.00170898 110.09155273 C-66.52015561 112.7494626 -68.02948026 115.41222301 -69.53125 118.07958984 C-72.12934481 122.68885872 -74.78479872 127.2643119 -77.44091797 131.84033203 C-84.91965304 144.73532128 -92.29696448 157.68919262 -99.68525696 170.63615417 C-102.02713796 174.7399588 -104.37044496 178.84294572 -106.71484375 182.9453125 C-107.04459702 183.52236435 -107.37435028 184.0994162 -107.71409607 184.69395447 C-109.37926709 187.60778122 -111.04476966 190.52141796 -112.71069336 193.43481445 C-115.71596485 198.69123113 -118.71907222 203.94882042 -121.71081543 209.21295166 C-129.43196853 222.79824185 -137.2380845 236.32426567 -145.25805664 249.73583984 C-148.34333117 254.90093201 -151.36384704 260.07475406 -154.20483398 265.37792969 C-158.78349684 273.8552677 -164.9110172 280.7330215 -174.06640625 284.30859375 C-182.7652449 286.37729836 -191.70867176 286.15067277 -199.49609375 281.55078125 C-207.1272004 275.99232085 -211.74021074 269.84968028 -214.7109375 260.9375 C-215.94129974 246.55638066 -210.50133192 237.2964928 -203.66796875 225.21484375 C-200.36510171 219.35686536 -197.19624339 213.42912839 -194.0234375 207.5 C-189.22971939 198.55738251 -184.35129938 189.66787433 -179.3984375 180.8125 C-172.0538672 167.65981634 -164.97887904 154.37280696 -157.94519043 141.05213928 C-155.47163496 136.36940896 -152.98406033 131.69435649 -150.48828125 127.0234375 C-141.08120136 109.40728815 -131.88887843 91.68869973 -122.78117371 73.91612244 C-118.73548535 66.02652148 -114.63507471 58.16584911 -110.51953125 50.3125 C-108.51585189 46.48761544 -106.53244683 42.65285943 -104.55859375 38.8125 C-92.46866082 15.33463025 -80.73204823 -3.65732313 -54.58984375 -12.8046875 C-34.94661597 -18.22606984 -15.64283742 -11.9011789 0 0 Z " fill="#F4F3F4" transform="translate(317.7109375,123.0625)"/>
<path d="M0 0 C5.64581702 3.75593735 9.70220824 8.34364358 11.77734375 14.84765625 C12.66629155 22.8275132 12.26602807 30.03251969 7.77734375 36.84765625 C5.89642736 39.16041569 4.07225776 40.90196829 1.77734375 42.84765625 C1.11734375 42.84765625 0.45734375 42.84765625 -0.22265625 42.84765625 C0.12925781 43.86859375 0.48117187 44.88953125 0.84375 45.94140625 C3.98767701 55.16308934 6.90800221 64.43647105 9.65234375 73.78515625 C9.96244385 74.83316406 10.27254395 75.88117188 10.59204102 76.9609375 C10.87748779 77.94320312 11.16293457 78.92546875 11.45703125 79.9375 C11.71210449 80.81269287 11.96717773 81.68788574 12.22998047 82.58959961 C12.77734375 84.84765625 12.77734375 84.84765625 12.77734375 87.84765625 C-5.37265625 87.84765625 -23.52265625 87.84765625 -42.22265625 87.84765625 C-41.09633629 79.96341655 -41.09633629 79.96341655 -40.171875 76.6484375 C-39.86878418 75.55571533 -39.86878418 75.55571533 -39.55957031 74.44091797 C-39.23811035 73.31194092 -39.23811035 73.31194092 -38.91015625 72.16015625 C-38.6894043 71.37141113 -38.46865234 70.58266602 -38.24121094 69.77001953 C-36.94732368 65.20417998 -35.53193335 60.70629187 -33.97265625 56.22265625 C-33.37902568 54.43437496 -32.79441967 52.64304863 -32.22265625 50.84765625 C-31.98675781 50.11289062 -31.75085938 49.378125 -31.5078125 48.62109375 C-30.87551728 46.33416586 -30.87551728 46.33416586 -31.22265625 42.84765625 C-33.24915053 39.87847521 -35.7252781 37.42120716 -38.22265625 34.84765625 C-42.33028647 29.14997562 -42.05527064 22.59579764 -41.22265625 15.84765625 C-38.76235287 7.85440393 -34.19255969 2.52504531 -26.90234375 -1.40234375 C-16.99451401 -5.8748437 -9.50367832 -5.17381716 0 0 Z " fill="#DDDCDC" transform="translate(291.22265625,313.15234375)"/>
<path d="M0 0 C0.66 0.33 1.32 0.66 2 1 C2 2.32 2 3.64 2 5 C2.598125 5.268125 3.19625 5.53625 3.8125 5.8125 C5.99847854 6.99917406 7.41332594 8.09599113 9 10 C9 10.66 9 11.32 9 12 C10.299375 12.433125 10.299375 12.433125 11.625 12.875 C13.64453352 13.54817784 15.65173857 14.26379895 17.625 15.0625 C25.78998038 17.33055011 31.86489005 18.03074849 39.5625 14 C40.53316406 13.4225 41.50382812 12.845 42.50390625 12.25 C43.32761719 11.8375 44.15132813 11.425 45 11 C45.99 11.33 46.98 11.66 48 12 C46.5839401 12.79275148 45.16712447 13.58415312 43.75 14.375 C42.96109375 14.81585938 42.1721875 15.25671875 41.359375 15.7109375 C40.58078125 16.13632812 39.8021875 16.56171875 39 17 C38.38898438 17.37640625 37.77796875 17.7528125 37.1484375 18.140625 C30.54427585 20.78228966 20.96098033 19.76501087 14.4375 17.3125 C7.41736718 13.97677464 2.20126524 9.21479182 -1 2 C-0.67 1.34 -0.34 0.68 0 0 Z " fill="#B2B2B1" transform="translate(394,389)"/>
<path d="M0 0 C0.66 0 1.32 0 2 0 C2 0.66 2 1.32 2 2 C2.66 2 3.32 2 4 2 C4.5775 3.175625 5.155 4.35125 5.75 5.5625 C7.69671506 9.46288268 9.80381332 13.23510854 12 17 C11.34 17.66 10.68 18.32 10 19 C8.32992313 16.02273264 6.66451428 13.0428803 5 10.0625 C4.28457031 8.78729492 4.28457031 8.78729492 3.5546875 7.48632812 C3.10351562 6.67744141 2.65234375 5.86855469 2.1875 5.03515625 C1.76855469 4.2862915 1.34960938 3.53742676 0.91796875 2.76586914 C0 1 0 1 0 0 Z " fill="#C8C8C8" transform="translate(382,371)"/>
<path d="M0 0 C3.63 0 7.26 0 11 0 C10.01 0.495 10.01 0.495 9 1 C9 1.66 9 2.32 9 3 C6.69 3 4.38 3 2 3 C2 2.34 2 1.68 2 1 C1.34 0.67 0.68 0.34 0 0 Z " fill="#1F1F1E" transform="translate(416,408)"/>
<path d="M0 0 C2.95749791 3.46741134 5.07848152 6.86873527 7 11 C6.34 11.66 5.68 12.32 5 13 C4.15930585 11.39967863 3.32768495 9.79458829 2.5 8.1875 C1.80390625 6.84751953 1.80390625 6.84751953 1.09375 5.48046875 C0 3 0 3 0 0 Z " fill="#161515" transform="translate(364,198)"/>
<path d="M0 0 C0.66 0.33 1.32 0.66 2 1 C2 2.32 2 3.64 2 5 C2.9590625 5.433125 2.9590625 5.433125 3.9375 5.875 C6 7 6 7 7 9 C6.01 9.33 5.02 9.66 4 10 C3.13619741 8.71475739 2.28419631 7.42157581 1.4375 6.125 C0.96183594 5.40570313 0.48617188 4.68640625 -0.00390625 3.9453125 C-0.33261719 3.30335938 -0.66132813 2.66140625 -1 2 C-0.67 1.34 -0.34 0.68 0 0 Z " fill="#C5C5C5" transform="translate(394,389)"/>
<path d="M0 0 C0.66 0.99 1.32 1.98 2 3 C1.34 4.32 0.68 5.64 0 7 C-0.66 7 -1.32 7 -2 7 C-2 7.66 -2 8.32 -2 9 C-2.66 9 -3.32 9 -4 9 C-2.80100302 5.9168649 -1.52299523 2.93720508 0 0 Z " fill="#252525" transform="translate(167,380)"/>
<path d="M0 0 C0.66 0.66 1.32 1.32 2 2 C-0.3125 4.0625 -0.3125 4.0625 -3 6 C-3.99 5.67 -4.98 5.34 -6 5 C-4.02 3.35 -2.04 1.7 0 0 Z " fill="#C1C0C0" transform="translate(261,314)"/>
<path d="M0 0 C0.99 0.33 1.98 0.66 3 1 C2.67 2.65 2.34 4.3 2 6 C1.01 6 0.02 6 -1 6 C-0.67 4.02 -0.34 2.04 0 0 Z " fill="#D3D2D2" transform="translate(250,394)"/>
<path d="M0 0 C0.99 0 1.98 0 3 0 C5.125 4.625 5.125 4.625 4 8 C2.68 5.36 1.36 2.72 0 0 Z " fill="#D4D2D3" transform="translate(368,347)"/>
</svg>
